<svg width="103" height="130" viewBox="0 0 103 130" fill="none" xmlns="http://www.w3.org/2000/svg">
<g filter="url(#filter0_d_148_1856)">
<rect x="20" y="94" width="80" height="43" rx="6" transform="rotate(-90 20 94)" fill="#E6E6E6"/>
</g>
<rect x="22.5" y="91.5" width="75" height="38" rx="5.5" transform="rotate(-90 22.5 91.5)" stroke="#373737"/>
<rect x="35" y="19" width="3" height="13" rx="1" transform="rotate(-90 35 19)" fill="#373737"/>
<path opacity="0.2" d="M49 105C48.4477 105 48 105.448 48 106C48 106.552 48.4477 107 49 107L49 105ZM75.7071 79.2929C75.3166 78.9024 74.6834 78.9024 74.2929 79.2929L67.9289 85.6569C67.5384 86.0474 67.5384 86.6805 67.9289 87.0711C68.3195 87.4616 68.9526 87.4616 69.3431 87.0711L75 81.4142L80.6569 87.0711C81.0474 87.4616 81.6805 87.4616 82.0711 87.0711C82.4616 86.6805 82.4616 86.0474 82.0711 85.6569L75.7071 79.2929ZM49 107L68 107L68 105L49 105L49 107ZM76 99L76 80L74 80L74 99L76 99ZM68 107C72.4183 107 76 103.418 76 99L74 99C74 102.314 71.3137 105 68 105L68 107Z" fill="#E6E6E6"/>
<path opacity="0.2" d="M34 3C34.5523 3 35 2.55228 35 2C35 1.44771 34.5523 0.999998 34 0.999998V3ZM7.29289 28.7071C7.68342 29.0976 8.31658 29.0976 8.70711 28.7071L15.0711 22.3431C15.4616 21.9526 15.4616 21.3195 15.0711 20.9289C14.6805 20.5384 14.0474 20.5384 13.6569 20.9289L8 26.5858L2.34315 20.9289C1.95262 20.5384 1.31946 20.5384 0.928932 20.9289C0.538408 21.3195 0.538408 21.9526 0.928932 22.3431L7.29289 28.7071ZM34 0.999998H15V3H34V0.999998ZM7 9L7 28H9V9H7ZM15 0.999998C10.5817 0.999998 7 4.58172 7 9H9C9 5.68629 11.6863 3 15 3V0.999998Z" fill="#E6E6E6"/>
<defs>
<filter id="filter0_d_148_1856" x="10" y="0" width="93" height="130" filterUnits="userSpaceOnUse" color-interpolation-filters="sRGB">
<feFlood flood-opacity="0" result="BackgroundImageFix"/>
<feColorMatrix in="SourceAlpha" type="matrix" values="0 0 0 0 0 0 0 0 0 0 0 0 0 0 0 0 0 0 127 0" result="hardAlpha"/>
<feOffset dx="15" dy="11"/>
<feGaussianBlur stdDeviation="12.5"/>
<feComposite in2="hardAlpha" operator="out"/>
<feColorMatrix type="matrix" values="0 0 0 0 0 0 0 0 0 0 0 0 0 0 0 0 0 0 0.44 0"/>
<feBlend mode="normal" in2="BackgroundImageFix" result="effect1_dropShadow_148_1856"/>
<feBlend mode="normal" in="SourceGraphic" in2="effect1_dropShadow_148_1856" result="shape"/>
</filter>
</defs>
</svg>
